<?xml version="1.0" encoding="UTF-8" standalone="no"?>
<!-- Generator: Adobe Illustrator 19.1.0, SVG Export Plug-In . SVG Version: 6.00 Build 0)  -->

<svg
   xmlns:dc="http://purl.org/dc/elements/1.1/"
   xmlns:cc="http://creativecommons.org/ns#"
   xmlns:rdf="http://www.w3.org/1999/02/22-rdf-syntax-ns#"
   xmlns:svg="http://www.w3.org/2000/svg"
   xmlns="http://www.w3.org/2000/svg"
   xmlns:sodipodi="http://sodipodi.sourceforge.net/DTD/sodipodi-0.dtd"
   xmlns:inkscape="http://www.inkscape.org/namespaces/inkscape"
   version="1.1"
   id="Layer_1"
   x="0px"
   y="0px"
   viewBox="0 0 133.501 33"
   style="enable-background:new 0 0 133.501 33;"
   xml:space="preserve"
   inkscape:version="0.91 r13725"
   sodipodi:docname="unbrand-logo.svg"><metadata
     id="metadata82"><rdf:RDF><cc:Work
         rdf:about=""><dc:format>image/svg+xml</dc:format><dc:type
           rdf:resource="http://purl.org/dc/dcmitype/StillImage" /><dc:title></dc:title></cc:Work></rdf:RDF></metadata><defs
     id="defs80" /><sodipodi:namedview
     pagecolor="#707070"
     bordercolor="#666666"
     borderopacity="1"
     objecttolerance="10"
     gridtolerance="10"
     guidetolerance="10"
     inkscape:pageopacity="0"
     inkscape:pageshadow="2"
     inkscape:window-width="1396"
     inkscape:window-height="908"
     id="namedview78"
     showgrid="false"
     inkscape:zoom="9.4531122"
     inkscape:cx="66.750504"
     inkscape:cy="16.5"
     inkscape:window-x="100"
     inkscape:window-y="24"
     inkscape:window-maximized="0"
     inkscape:current-layer="g48" /><g
     id="g3"><g
       id="g5"><path
         style="fill:#3B97D3;"
         d="M28.716,5.228c0,0.706-0.512,1.218-1.182,1.218c-0.671,0-1.183-0.512-1.183-1.218    c0-0.723,0.512-1.235,1.183-1.235C28.204,3.993,28.716,4.505,28.716,5.228z M26.528,17.3V7.911h2.012V17.3H26.528z"
         id="path7" /><path
         style="fill:#3B97D3;"
         d="M37.628,8.776l-0.741,1.5c-0.83-0.512-1.871-0.829-2.7-0.829c-0.794,0-1.377,0.265-1.377,0.935    c0,1.73,4.995,0.794,4.977,4.201c0,1.924-1.712,2.789-3.601,2.789c-1.377,0-2.842-0.459-3.777-1.306l0.724-1.447    c0.812,0.723,2.118,1.165,3.141,1.165c0.865,0,1.535-0.3,1.535-1.006c0-1.924-4.941-0.847-4.924-4.236    c0-1.906,1.659-2.718,3.459-2.718C35.528,7.823,36.781,8.175,37.628,8.776z"
         id="path9" /><path
         style="fill:#3B97D3;"
         d="M45.462,16.153c-0.671,0.83-1.747,1.236-3.106,1.236c-2.029,0-3.3-1.253-3.3-2.912    c0-1.712,1.288-2.806,3.547-2.824h2.841V11.37c0-1.182-0.759-1.888-2.241-1.888c-0.9,0-1.836,0.318-2.771,0.953l-0.83-1.412    c1.306-0.777,2.259-1.183,4.042-1.183c2.417,0,3.776,1.236,3.794,3.3l0.017,6.16h-1.994V16.153z M45.444,14v-0.865h-2.541    c-1.323,0-1.941,0.353-1.941,1.253c0,0.847,0.688,1.394,1.818,1.394C44.226,15.782,45.338,15.023,45.444,14z"
         id="path11" /><path
         style="fill:#FFFFFF;"
         d="M58.361,13.188h-7.589c0.246,1.818,1.571,2.965,3.371,2.965c1.148,0,2.153-0.406,2.877-1.165    l0.759,0.812c-0.882,0.988-2.188,1.553-3.742,1.553c-2.736,0-4.624-1.924-4.624-4.695c0-2.771,1.907-4.694,4.607-4.694    C57.019,7.946,58.502,10.029,58.361,13.188z M57.125,12.058c-0.088-1.783-1.288-2.912-3.106-2.912    c-1.765,0-3.036,1.147-3.247,2.912H57.125z"
         id="path13" /><path
         style="fill:#FFFFFF;"
         d="M65.683,7.999H67.2l-3.106,4.518L67.43,17.3h-1.606l-2.648-3.794L60.441,17.3h-1.554l3.389-4.783    l-3.159-4.518h1.589l2.471,3.53L65.683,7.999z"
         id="path15" /><path
         style="fill:#FFFFFF;"
         d="M79.041,12.676c0,2.753-1.8,4.677-4.429,4.677c-1.659,0-2.93-0.759-3.619-2.047v5.418h-1.377V7.999    h1.377v2.012c0.688-1.306,1.959-2.065,3.583-2.065C77.206,7.946,79.041,9.887,79.041,12.676z M77.647,12.641    c0-1.994-1.377-3.459-3.318-3.459c-1.959,0-3.336,1.447-3.336,3.459c0,2.03,1.377,3.459,3.336,3.459    C76.27,16.1,77.647,14.653,77.647,12.641z"
         id="path17" /><path
         style="fill:#FFFFFF;"
         d="M81.544,17.3V4.204h1.377V17.3H81.544z"
         id="path19" /><path
         style="fill:#FFFFFF;"
         d="M94.851,12.641c0,2.789-1.959,4.712-4.712,4.712c-2.754,0-4.713-1.924-4.713-4.712    c0-2.771,1.959-4.677,4.713-4.677C92.891,7.964,94.851,9.87,94.851,12.641z M86.803,12.658c0,2.048,1.394,3.459,3.336,3.459    c1.941,0,3.335-1.412,3.335-3.459c0-2.029-1.394-3.442-3.335-3.442C88.197,9.217,86.803,10.629,86.803,12.658z"
         id="path21" /><path
         style="fill:#FFFFFF;"
         d="M98.643,10.064c0.618-1.359,1.765-2.1,3.335-2.118V9.34c-1.958-0.035-3.177,1.183-3.335,3.018V17.3    h-1.377V7.999h1.377V10.064z"
         id="path23" /><path
         style="fill:#FFFFFF;"
         d="M111.843,13.188h-7.589c0.246,1.818,1.571,2.965,3.371,2.965c1.148,0,2.153-0.406,2.877-1.165    l0.759,0.812c-0.882,0.988-2.188,1.553-3.742,1.553c-2.736,0-4.624-1.924-4.624-4.695c0-2.771,1.907-4.694,4.607-4.694    C110.502,7.946,111.984,10.029,111.843,13.188z M110.607,12.058c-0.088-1.783-1.288-2.912-3.106-2.912    c-1.765,0-3.036,1.147-3.247,2.912H110.607z"
         id="path25" /><path
         style="fill:#FFFFFF;"
         d="M115.582,10.064c0.618-1.359,1.765-2.1,3.335-2.118V9.34c-1.958-0.035-3.177,1.183-3.335,3.018    V17.3h-1.377V7.999h1.377V10.064z"
         id="path27" /></g></g><g
     id="g29"><g
       id="g31"><path
         style="fill:#3B97D3;"
         d="M12.502,20.333c-4.962,0-9-4.037-9-8.999s4.038-9,9-9c4.962,0,9,4.037,9,9    S17.464,20.333,12.502,20.333z M12.502,3.922c-4.087,0-7.411,3.325-7.411,7.411s3.324,7.411,7.411,7.411    c4.087,0,7.411-3.325,7.411-7.411S16.589,3.922,12.502,3.922z"
         id="path33" /></g><path
       style="fill:#FFFFFF;"
       d="M10.726,9.328l-1.947,5.73l5.729-1.947l1.947-5.729L10.726,9.328z M12.616,12.137   c-0.507,0-0.917-0.411-0.917-0.917c0-0.506,0.41-0.917,0.917-0.917c0.506,0,0.917,0.411,0.917,0.917   C13.533,11.726,13.122,12.137,12.616,12.137z"
       id="path35" /></g><g
     id="g37"><g
       id="g48" /></g></svg>